<!--?xml version="1.0" standalone="no"?-->
              <svg id="sw-js-blob-svg" viewBox="0 0 100 100" xmlns="http://www.w3.org/2000/svg" version="1.1">
                    <defs> 
                        <linearGradient id="sw-gradient" x1="0" x2="1" y1="1" y2="0">
                            <stop id="stop1" stop-color="rgba(255, 165.651, 165.651, 1)" offset="0%"></stop>
                            <stop id="stop2" stop-color="rgba(240.272, 0, 0, 1)" offset="100%"></stop>
                        </linearGradient>
                    </defs>
                <path fill="url(#sw-gradient)" d="M17.3,-26.8C22.3,-20.2,26,-14.9,28.2,-8.9C30.5,-3,31.2,3.7,30.6,11.2C29.9,18.8,27.9,27.2,22.5,33C17.2,38.8,8.6,42,1.3,40.2C-6,38.4,-12,31.6,-17.8,25.9C-23.6,20.3,-29.2,15.8,-33.1,9.4C-37,3.1,-39.3,-5.2,-37.6,-12.8C-35.9,-20.3,-30.3,-27.2,-23.4,-33.2C-16.5,-39.1,-8.2,-44.3,-1,-42.8C6.2,-41.4,12.4,-33.5,17.3,-26.8Z" width="100%" height="100%" transform="translate(50 50)" stroke-width="0" style="transition: all 0.3s ease 0s;" stroke="url(#sw-gradient)"></path>
              </svg>